<svg xmlns="http://www.w3.org/2000/svg" viewBox="0 0 100 100" width="100%" height="100%">
  <rect width="100" height="100" rx="20" fill="#090D16" stroke="#1E293B" stroke-width="2" />
  <g transform="translate(25, 20) scale(0.5)">
    <!-- Apple Logo outline -->
    <path d="M 68.3 43.7 C 68.4 33.6 76.7 28.5 77 28.3 C 72.3 21.4 65.1 20.4 62.6 20.2 C 56.6 19.6 50.8 23.8 47.7 23.8 C 44.6 23.8 39.9 20.3 34.8 20.4 C 28.3 20.5 22.2 24.2 18.9 30.1 C 12.1 41.8 17.2 59.2 23.7 68.7 C 26.9 73.3 30.7 78.4 35.7 78.2 C 40.5 78 42.4 75.1 48.2 75.1 C 53.9 75.1 55.6 78.2 60.7 78.1 C 65.9 78 69.1 73.4 72.3 68.7 C 76 63.3 77.5 58 77.6 57.7 C 77.4 57.6 68.2 54.1 68.3 43.7 Z" fill="#F8FAFC" />
    <path d="M 58.7 13.5 C 61.3 10.3 63.1 5.9 62.6 1.4 C 58.7 1.6 53.9 4.1 51.1 7.4 C 48.6 10.3 46.4 14.8 47.1 19.2 C 51.5 19.5 56 16.8 58.7 13.5 Z" fill="#F8FAFC" />
  </g>
</svg>
